<?xml version="1.0" encoding="UTF-8"?>
<svg width="7px" height="10px" viewBox="0 0 7 10" version="1.1" xmlns="http://www.w3.org/2000/svg" xmlns:xlink="http://www.w3.org/1999/xlink">
    <!-- Generator: Sketch 42 (36781) - http://www.bohemiancoding.com/sketch -->
    <title>icons_general/locked@3x</title>
    <desc>Created with Sketch.</desc>
    <defs></defs>
    <g id="Page-1" stroke="none" stroke-width="1" fill="none" fill-rule="evenodd" opacity="0.25">
        <g id="Hovers-/-Highlihts" transform="translate(-15.000000, -183.000000)" fill="#FFFFFF">
            <g id="server-normal-encrypted" transform="translate(0.000000, 161.000000)">
                <g id="icons_general/locked" transform="translate(15.000000, 22.000000)">
                    <path d="M1.94439783,2.71501787 C1.94439783,2.2866801 2.09633951,1.92110218 2.40018642,1.61808411 C2.70403333,1.31510241 3.07062569,1.16360246 3.50005463,1.16360246 C3.92944712,1.16360246 4.29609416,1.31508423 4.5998317,1.61808411 C4.90369684,1.92110218 5.05563852,2.28669828 5.05563852,2.71501787 L5.05563852,4.65428259 L1.94439783,4.65428259 L1.94439783,2.71501787 Z M6.82986531,4.82392689 C6.71642402,4.71075191 6.5787377,4.65428259 6.41662403,4.65428259 L6.22229909,4.65428259 L6.22229909,2.71501787 C6.22229909,1.96749938 5.95594997,1.32826525 5.42330641,0.796951877 C4.89058993,0.265602144 4.2494817,0 3.50005463,0 C2.75059111,0 2.10953757,0.265602144 1.5767664,0.796933696 C1.04410461,1.32817434 0.777755485,1.96748119 0.777755485,2.71499969 L0.777755485,4.65424623 L0.583339401,4.65424623 C0.421353341,4.65424623 0.283575866,4.71086099 0.170134582,4.82389053 C0.056693298,4.93692007 0,5.07436631 0,5.23599292 L0,8.72672759 C0,8.88840873 0.0567297567,9.02580044 0.170134582,9.13886634 C0.283575866,9.25191406 0.421353341,9.30851064 0.583339401,9.30851064 L6.41662403,9.30851064 C6.5787377,9.30851064 6.71655163,9.25191406 6.82986531,9.13886634 C6.94319722,9.02580044 6.99999989,8.88840873 6.99999989,8.72672759 L6.99999989,5.2360111 C7.00009104,5.0743845 6.94336128,4.9370837 6.82986531,4.82392689 L6.82986531,4.82392689 Z" id="Fill-1"></path>
                </g>
            </g>
        </g>
    </g>
</svg>