<?xml version="1.0" encoding="UTF-8"?>
<svg width="35px" height="31px" viewBox="0 0 35 31" version="1.1" xmlns="http://www.w3.org/2000/svg" xmlns:xlink="http://www.w3.org/1999/xlink">
    <!-- Generator: Sketch 42 (36781) - http://www.bohemiancoding.com/sketch -->
    <title>icons_gray/server@3x</title>
    <desc>Created with Sketch.</desc>
    <defs></defs>
    <g id="Page-1" stroke="none" stroke-width="1" fill="none" fill-rule="evenodd" opacity="0.5">
        <g id="1440-Display---Input-v2" transform="translate(-874.000000, -83.000000)" fill="#484F59">
            <g id="icons_gray/server" transform="translate(874.000000, 83.000000)">
                <g id="Page-1">
                    <path d="M2.10800869,2.88552376 L2.10800869,8.83745485 C2.10800869,9.28389275 2.47142242,9.6471242 2.9181112,9.6471242 L32.0730909,9.6471242 C32.5246577,9.6471242 32.8919042,9.28389275 32.8919042,8.83745485 L32.8919042,2.88552376 C32.8919042,2.44382328 32.5246577,2.08446791 32.0730909,2.08446791 L2.90940042,2.08446791 C2.49476731,2.08446791 2.15199813,2.39403723 2.10487281,2.7917227 L2.10800869,2.88552376 Z M2.9181112,11.7229786 C2.47142242,11.7229786 2.10800869,12.082334 2.10800869,12.5240345 L2.10800869,18.4759655 C2.10800869,18.917666 2.47142242,19.2770214 2.9181112,19.2770214 L32.0818888,19.2770214 C32.5332814,19.2770214 32.900615,18.917666 32.900615,18.4759655 L32.900615,12.5240345 C32.900615,12.082334 32.5332814,11.7229786 32.0818888,11.7229786 L2.9181112,11.7229786 Z M2.9181112,21.3614893 C2.47142242,21.3614893 2.10800869,21.7208447 2.10800869,22.1625452 L2.10800869,28.1144762 C2.10800869,28.5561767 2.47142242,28.9155321 2.9181112,28.9155321 L32.0818888,28.9155321 C32.5332814,28.9155321 32.900615,28.5561767 32.900615,28.1144762 L32.900615,22.1625452 C32.900615,21.7208447 32.5332814,21.3614893 32.0818888,21.3614893 L2.9181112,21.3614893 Z M2.9181112,31 C1.30905598,31 0,29.7055627 0,28.1144762 L0,22.1625452 C0,21.4848347 0.238414041,20.838908 0.67578229,20.3192553 C0.238414041,19.7996888 0,19.1537622 0,18.4759655 L0,12.5240345 C0,11.8462378 0.238414041,11.2003973 0.67578229,10.6807447 C0.238414041,10.161092 0,9.51525146 0,8.83745485 L0,2.88552376 C0,1.29443734 1.30905598,0 2.9181112,0 L32.0818888,0 C33.6908569,0 35,1.29443734 35,2.88552376 L35,8.83745485 C35,9.51525146 34.761586,10.161092 34.3241306,10.6807447 C34.761586,11.2003973 35,11.8462378 35,12.5240345 L35,18.4759655 C35,19.1537622 34.761586,19.7996888 34.3241306,20.3192553 C34.761586,20.838908 35,21.4848347 35,22.1625452 L35,28.1144762 C35,29.7055627 33.6908569,31 32.0818888,31 L2.9181112,31 Z" id="Fill-1"></path>
                    <path d="M17.058309,7 C16.4747522,7 16,6.55140496 16,6 C16,5.44859504 16.4747522,5 17.058309,5 L26.941691,5 C27.5252478,5 28,5.44859504 28,6 C28,6.55140496 27.5252478,7 26.941691,7 L17.058309,7 Z" id="Fill-4"></path>
                    <path d="M9,7 C8.44862319,7 8,6.55137681 8,6 C8,5.44855072 8.44862319,5 9,5 C9.55137681,5 10,5.44855072 10,6 C10,6.55137681 9.55137681,7 9,7" id="Fill-6"></path>
                    <path d="M17.058309,16 C16.4765015,16 16.0116327,15.5628926 16,15.004876 C16,14.4486777 16.4747522,14 17.058309,14 L26.941691,14 C27.5252478,14 28,14.4486777 28,15 C28,15.551405 27.5252478,16 26.941691,16 L17.058309,16 Z" id="Fill-8"></path>
                    <path d="M17.058309,26 C16.4747522,26 16,25.551405 16,25 C16,24.4486777 16.4747522,24 17.058309,24 L26.941691,24 C27.5252478,24 28,24.4486777 28,25 C28,25.551405 27.5252478,26 26.941691,26 L17.058309,26 Z" id="Fill-10"></path>
                    <path d="M9,16 C8.44862319,16 8,15.5513768 8,15 C8,14.4485507 8.44862319,14 9,14 C9.55137681,14 10,14.4485507 10,15 C10,15.5513768 9.55137681,16 9,16" id="Fill-12"></path>
                    <path d="M9,26 C8.44862319,26 8,25.5514493 8,25 C8,24.4486232 8.44862319,24 9,24 C9.55137681,24 10,24.4486232 10,25 C10,25.5514493 9.55137681,26 9,26" id="Fill-14"></path>
                </g>
            </g>
        </g>
    </g>
</svg>