<?xml version="1.0" encoding="UTF-8"?>
<svg width="23px" height="28px" viewBox="0 0 23 28" version="1.1" xmlns="http://www.w3.org/2000/svg" xmlns:xlink="http://www.w3.org/1999/xlink">
    <!-- Generator: Sketch 42 (36781) - http://www.bohemiancoding.com/sketch -->
    <title>icons_gray/trash@3x</title>
    <desc>Created with Sketch.</desc>
    <defs></defs>
    <g id="Page-1" stroke="none" stroke-width="1" fill="none" fill-rule="evenodd" opacity="1">
        <g id="Hovers-/-Highlihts" transform="translate(-1377.000000, -41.000000)" fill="#82868D">
            <g id="Header---Server" transform="translate(363.000000, 0.000000)">
                <g id="icons_gray/trash" transform="translate(1014.000000, 41.000000)">
                    <path d="M20.9221773,9.44429578 L1.62691317,9.44429578 L1.62691317,7.31093592 C1.62691317,6.51145675 2.31790756,5.86101414 3.16715624,5.86101414 L7.06908562,5.86101414 L15.1543264,5.86101414 L19.3820082,5.86101414 C20.2312569,5.86101414 20.9221773,6.51145675 20.9221773,7.31093592 L20.9221773,9.44429578 Z M18.957088,24.7550353 C18.957088,25.4572683 18.2567759,26.0285635 17.395917,26.0285635 L5.15317351,26.0285635 C4.29231459,26.0285635 3.59200243,25.4572683 3.59200243,24.7550353 L3.59200243,10.9757317 L6.53908168,10.9757317 L6.53908168,21.5470947 C6.53908168,21.9699799 6.90328838,22.3128127 7.35253826,22.3128127 C7.80178815,22.3128127 8.16599485,21.9699799 8.16599485,21.5470947 L8.16599485,10.9757317 L10.4611256,10.9757317 L10.4611256,18.5647625 C10.4611256,18.9877172 10.8253323,19.3304804 11.2745822,19.3304804 C11.7238321,19.3304804 12.0880388,18.9877172 12.0880388,18.5647625 L12.0880388,10.9757317 L14.5873472,10.9757317 L14.5873472,15.4629086 C14.5873472,15.8857937 14.9515539,16.2286266 15.4008038,16.2286266 C15.8500536,16.2286266 16.2142603,15.8857937 16.2142603,15.4629086 L16.2142603,10.9757317 L18.957088,10.9757317 L18.957088,24.7550353 Z M7.8825422,2.82730917 C7.8825422,2.1128247 8.5000297,1.53143593 9.2591326,1.53143593 L12.9642055,1.53143593 C13.7232344,1.53143593 14.3408698,2.1128247 14.3408698,2.82730917 L14.3408698,4.32957821 L7.8825422,4.32957821 L7.8825422,2.82730917 Z M19.3820082,4.32957821 L15.967783,4.32957821 L15.967783,2.82730917 C15.967783,1.268377 14.6203291,0 12.9642055,0 L9.2591326,0 C7.60300894,0 6.25562904,1.268377 6.25562904,2.82730917 L6.25562904,4.32957821 L3.16715624,4.32957821 C1.42081285,4.32957821 0,5.66700905 0,7.31093592 L0,10.2100137 C0,10.6328989 0.364206698,10.9757317 0.813456584,10.9757317 L1.96508926,10.9757317 L1.96508926,24.7550353 C1.96508926,26.301716 3.39521988,27.5599995 5.15317351,27.5599995 L17.395917,27.5599995 C19.1538706,27.5599995 20.5840012,26.301716 20.5840012,24.7550353 L20.5840012,10.9757317 L21.7356339,10.9757317 C22.1848838,10.9757317 22.5490905,10.6328989 22.5490905,10.2100137 L22.5490905,7.31093592 C22.5490905,5.66700905 21.1283516,4.32957821 19.3820082,4.32957821 L19.3820082,4.32957821 Z" id="Fill-1"></path>
                </g>
            </g>
        </g>
    </g>
</svg>
